<svg width="649" height="523" viewBox="0 0 649 523" fill="none" xmlns="http://www.w3.org/2000/svg">
<path d="M194.583 372.97H0V290.452H37.4648V82.5175H0V0H239.307C278.02 0 306.431 7.81416 324.539 23.4425C342.803 39.0708 351.935 65.0138 351.935 101.271C351.935 125.495 345.145 144.171 331.564 157.299C317.983 170.427 298.704 179.257 273.727 183.789C296.206 187.383 312.363 195.823 322.197 209.107C332.188 222.391 337.183 238.957 337.183 258.805V289.046H389.4V372.97H314.002C297.923 372.97 284.967 372.423 275.132 371.329C265.298 370.078 257.493 367.265 251.717 362.889C246.097 358.357 241.414 351.324 237.667 341.791C232.048 327.413 229.238 303.424 229.238 269.823C229.238 250.6 226.116 236.378 219.872 227.157C213.628 217.78 202.232 213.092 185.685 213.092H157.352V290.452H194.583V372.97ZM157.352 82.5175V159.878H189.432C206.447 159.878 219.091 156.83 227.365 150.735C235.638 144.64 239.775 133.935 239.775 118.619C239.775 107.366 235.482 98.5365 226.896 92.1289C218.467 85.7213 207.54 82.5175 194.115 82.5175H157.352Z" fill="black"/>
<path d="M551.186 439.969V522.486H341.752V439.969H386.915V232.034H341.752V149.517H649V300.252H581.373L566.63 232.034H506.725V302.596H558.908V362.609H506.725V439.969H551.186Z" fill="black"/>
</svg>
