<svg width="40" height="40" viewBox="0 0 40 40" fill="none" xmlns="http://www.w3.org/2000/svg">
<path d="M35.0001 4.16602H5.00008C3.16675 4.16602 1.66675 5.66602 1.66675 7.49935V20.8327H5.00008V7.49935H35.0001V34.166C36.8334 34.166 38.3334 32.666 38.3334 30.8327V7.49935C38.3334 5.66602 36.8334 4.16602 35.0001 4.16602Z" fill="black"/>
<path d="M21.6667 15.8327C21.6667 12.1493 18.6834 9.16602 15.0001 9.16602C11.3167 9.16602 8.33342 12.1493 8.33342 15.8327C8.33342 19.516 11.3167 22.4993 15.0001 22.4993C18.6834 22.4993 21.6667 19.516 21.6667 15.8327ZM11.6667 15.8327C11.6667 13.9993 13.1667 12.4993 15.0001 12.4993C16.8334 12.4993 18.3334 13.9993 18.3334 15.8327C18.3334 17.666 16.8334 19.166 15.0001 19.166C13.1667 19.166 11.6667 17.666 11.6667 15.8327Z" fill="black"/>
<path d="M25.6501 26.766C22.8501 25.3327 19.2167 24.166 15.0001 24.166C10.7834 24.166 7.15008 25.3327 4.35008 26.766C2.68341 27.616 1.66675 29.3327 1.66675 31.1993V35.8327H28.3334V31.1993C28.3334 29.3327 27.3167 27.616 25.6501 26.766ZM25.0001 32.4993H5.00008C5.00008 31.2993 4.83341 30.266 5.86675 29.7327C7.85008 28.716 11.0501 27.4993 15.0001 27.4993C18.9501 27.4993 22.1501 28.716 24.1334 29.7327C25.1834 30.266 25.0001 31.316 25.0001 32.4993Z" fill="black"/>
</svg>
