<svg width="40" height="40" viewBox="0 0 40 40" fill="none" xmlns="http://www.w3.org/2000/svg">
<path d="M33.3333 5H6.66659C4.81659 5 3.33325 6.48333 3.33325 8.33333V28.3333C3.33325 30.1667 4.81659 31.6667 6.66659 31.6667H13.3333V35H26.6666V31.6667H33.3333C35.1666 31.6667 36.6666 30.1667 36.6666 28.3333V8.33333C36.6666 6.48333 35.1666 5 33.3333 5ZM33.3333 28.3333H6.66659V8.33333H33.3333V28.3333Z" fill="white"/>
<path d="M23.3333 13.75H9.99992V16.25H23.3333V13.75Z" fill="white"/>
<path d="M27.4999 16.25H29.9999V13.75H27.4999V11.6667H24.9999V18.3333H27.4999V16.25Z" fill="white"/>
<path d="M29.9999 20.4167H16.6666V22.9167H29.9999V20.4167Z" fill="white"/>
<path d="M12.4999 25H14.9999V18.3333H12.4999V20.4167H9.99992V22.9167H12.4999V25Z" fill="white"/>
</svg>
