<svg width="198" height="198" viewBox="0 0 198 198" fill="none" xmlns="http://www.w3.org/2000/svg">
<path d="M98.9797 0H98.53C44.1134 0 0 44.1264 0 98.559V99.0089C0 153.441 44.1134 197.568 98.53 197.568H98.9797C153.396 197.568 197.51 153.441 197.51 99.0089V98.559C197.51 44.1264 153.396 0 98.9797 0Z" fill="white"/>
<path fill-rule="evenodd" clip-rule="evenodd" d="M99 36C63.0875 36 34 64.9056 34 100.594C34 129.176 52.6062 153.318 78.4437 161.877C81.6937 162.442 82.9125 160.504 82.9125 158.808C82.9125 157.274 82.8313 152.188 82.8313 146.778C66.5 149.765 62.275 142.822 60.975 139.188C60.2437 137.331 57.075 131.598 54.3125 130.064C52.0375 128.853 48.7875 125.866 54.2313 125.785C59.35 125.704 63.0063 130.468 64.225 132.406C70.075 142.176 79.4188 139.43 83.1562 137.735C83.725 133.536 85.4312 130.71 87.3 129.095C72.8375 127.481 57.725 121.909 57.725 97.2024C57.725 90.1778 60.2437 84.3644 64.3875 79.8428C63.7375 78.228 61.4625 71.6072 65.0375 62.7256C65.0375 62.7256 70.4813 61.03 82.9125 69.3464C88.1125 67.893 93.6375 67.1664 99.1625 67.1664C104.688 67.1664 110.213 67.893 115.413 69.3464C127.844 60.9492 133.287 62.7256 133.287 62.7256C136.863 71.6072 134.588 78.228 133.938 79.8428C138.081 84.3644 140.6 90.0971 140.6 97.2024C140.6 121.99 125.406 127.481 110.944 129.095C113.3 131.114 115.331 134.99 115.331 141.045C115.331 149.685 115.25 156.628 115.25 158.808C115.25 160.504 116.469 162.523 119.719 161.877C145.394 153.318 164 129.095 164 100.594C164 64.9056 134.912 36 99 36Z" fill="black"/>
</svg>
