<svg width="198" height="198" viewBox="0 0 198 198" fill="none" xmlns="http://www.w3.org/2000/svg">
<path d="M98.9797 0H98.53C44.1134 0 0 44.1264 0 98.559V99.0089C0 153.441 44.1134 197.568 98.53 197.568H98.9797C153.396 197.568 197.51 153.441 197.51 99.0089V98.559C197.51 44.1264 153.396 0 98.9797 0Z" fill="black"/>
<path d="M129.316 40.1943H68.2008C51.3167 40.1943 37.5811 53.934 37.5811 70.8231V126.751C37.5811 143.64 51.3167 157.38 68.2008 157.38H129.316C146.2 157.38 159.936 143.64 159.936 126.751V70.8231C159.936 53.934 146.2 40.1943 129.316 40.1943ZM48.3828 70.8231C48.3828 59.8937 57.2746 50.9992 68.2008 50.9992H129.316C140.242 50.9992 149.134 59.8937 149.134 70.8231V126.751C149.134 137.68 140.242 146.575 129.316 146.575H68.2008C57.2746 146.575 48.3828 137.68 48.3828 126.751V70.8231Z" fill="white"/>
<path d="M98.7585 127.27C114.459 127.27 127.24 114.492 127.24 98.78C127.24 83.0676 114.466 70.29 98.7585 70.29C83.0507 70.29 70.2769 83.0676 70.2769 98.78C70.2769 114.492 83.0507 127.27 98.7585 127.27ZM98.7585 81.1018C108.508 81.1018 116.438 89.0342 116.438 98.7869C116.438 108.54 108.508 116.472 98.7585 116.472C89.0086 116.472 81.0786 108.54 81.0786 98.7869C81.0786 89.0342 89.0086 81.1018 98.7585 81.1018Z" fill="white"/>
<path d="M129.877 74.8935C134.105 74.8935 137.551 71.4534 137.551 67.2173C137.551 62.9811 134.111 59.541 129.877 59.541C125.642 59.541 122.203 62.9811 122.203 67.2173C122.203 71.4534 125.642 74.8935 129.877 74.8935Z" fill="white"/>
</svg>
