<svg width="198" height="198" viewBox="0 0 198 198" fill="none" xmlns="http://www.w3.org/2000/svg">
<path d="M98.9797 0H98.53C44.1135 0 0 44.1264 0 98.559V99.0089C0 153.441 44.1135 197.568 98.53 197.568H98.9797C153.396 197.568 197.51 153.441 197.51 99.0089V98.559C197.51 44.1264 153.396 0 98.9797 0Z" fill="white"/>
<path d="M47.1028 65.6733C44.5009 63.2576 43.207 60.2674 43.207 56.7096C43.207 53.1518 44.5079 50.0301 47.1028 47.6075C49.7046 45.1918 53.0537 43.9805 57.1571 43.9805C61.2605 43.9805 64.4783 45.1918 67.0732 47.6075C69.675 50.0232 70.9689 53.0618 70.9689 56.7096C70.9689 60.3573 69.668 63.2576 67.0732 65.6733C64.4713 68.089 61.1706 69.3003 57.1571 69.3003C53.1437 69.3003 49.7046 68.089 47.1028 65.6733ZM68.7823 79.5306V153.593H45.3867V79.5306H68.7823Z" fill="black"/>
<path d="M146.664 86.8471C151.764 92.3845 154.31 99.9846 154.31 109.661V152.285H132.091V112.665C132.091 107.785 130.825 103.992 128.299 101.293C125.773 98.5934 122.369 97.2367 118.106 97.2367C113.844 97.2367 110.439 98.5865 107.913 101.293C105.388 103.992 104.121 107.785 104.121 112.665V152.285H81.7708V79.3232H104.121V88.9998C106.384 85.7743 109.436 83.227 113.269 81.3512C117.103 79.4755 121.414 78.541 126.209 78.541C134.748 78.541 141.571 81.3097 146.664 86.8471Z" fill="black"/>
</svg>
