<svg width="198" height="198" viewBox="0 0 198 198" fill="none" xmlns="http://www.w3.org/2000/svg">
<path d="M98.9797 0H98.53C44.1134 0 0 44.1264 0 98.559V99.0089C0 153.441 44.1134 197.568 98.53 197.568H98.9797C153.396 197.568 197.51 153.441 197.51 99.0089V98.559C197.51 44.1264 153.396 0 98.9797 0Z" fill="white"/>
<g clip-path="url(#clip0_75_51)">
<path d="M99 39C65.8636 39 39 65.8609 39 99C39 132.139 65.8636 159 99 159C132.136 159 159 132.139 159 99C159 65.8609 132.136 39 99 39ZM128.273 125.494C127.309 127.2 125.536 128.16 123.709 128.16C122.855 128.16 121.973 127.946 121.164 127.496C113.673 123.296 105.509 120.724 96.8819 119.85C88.2364 118.984 79.7 119.861 71.5 122.479C68.7636 123.353 65.8182 121.841 64.9455 119.1C64.0637 116.355 65.5818 113.419 68.3273 112.541C77.8909 109.485 87.8636 108.446 97.9363 109.47C107.991 110.494 117.518 113.494 126.264 118.395C128.782 119.797 129.682 122.977 128.273 125.494ZM135.455 107.269C134.527 109.054 132.709 110.077 130.827 110.077C130.009 110.077 129.191 109.89 128.418 109.485C119.209 104.689 109.264 101.719 98.8363 100.661C88.3272 99.5855 77.9182 100.523 67.8818 103.417C65.1091 104.205 62.2182 102.619 61.4273 99.8473C60.6273 97.08 62.2272 94.1891 64.9909 93.39C76.3182 90.1236 88.0636 89.0773 99.8909 90.2773C111.636 91.4736 122.855 94.8191 133.245 100.234C135.791 101.565 136.791 104.715 135.455 107.269ZM138.055 92.1073C137.273 92.1073 136.482 91.9309 135.727 91.56C124.8 86.1109 113.045 82.7173 100.782 81.4727C88.5 80.2164 76.2818 81.1873 64.4545 84.3455C61.6727 85.0836 58.8182 83.4336 58.0727 80.6473C57.3273 77.8645 58.9819 75.0036 61.7728 74.2609C74.8182 70.7773 88.3091 69.7164 101.845 71.0927C115.364 72.4609 128.327 76.2073 140.382 82.2191C142.964 83.5045 144.009 86.64 142.727 89.2164C141.818 91.05 139.973 92.1073 138.055 92.1073Z" fill="black"/>
</g>
<defs>
<clipPath id="clip0_75_51">
<rect width="120" height="120" fill="white" transform="translate(39 39)"/>
</clipPath>
</defs>
</svg>
